<svg width="32" height="32" viewBox="0 0 32 32" fill="none" xmlns="http://www.w3.org/2000/svg">
<circle cx="16" cy="16" r="16" fill="#F4F0E9"/>
<path d="M19.125 16.8335C19.125 16.6677 19.0592 16.5088 18.9419 16.3916C18.8247 16.2743 18.6658 16.2085 18.5 16.2085H13.5C13.3342 16.2085 13.1753 16.2743 13.0581 16.3916C12.9408 16.5088 12.875 16.6677 12.875 16.8335C12.875 16.9993 12.9408 17.1582 13.0581 17.2754C13.1753 17.3926 13.3342 17.4585 13.5 17.4585H18.5C18.6658 17.4585 18.8247 17.3926 18.9419 17.2754C19.0592 17.1582 19.125 16.9993 19.125 16.8335ZM19.125 20.1668C19.125 20.0011 19.0592 19.8421 18.9419 19.7249C18.8247 19.6077 18.6658 19.5418 18.5 19.5418H13.5C13.3342 19.5418 13.1753 19.6077 13.0581 19.7249C12.9408 19.8421 12.875 20.0011 12.875 20.1668C12.875 20.3326 12.9408 20.4916 13.0581 20.6088C13.1753 20.726 13.3342 20.7918 13.5 20.7918H18.5C18.6658 20.7918 18.8247 20.726 18.9419 20.6088C19.0592 20.4916 19.125 20.3326 19.125 20.1668Z" fill="#502B15"/>
<path fill-rule="evenodd" clip-rule="evenodd" d="M11.8346 7.875C11.2268 7.875 10.644 8.11644 10.2142 8.54621C9.78441 8.97598 9.54297 9.55888 9.54297 10.1667V21.8333C9.54297 22.4411 9.78441 23.024 10.2142 23.4538C10.644 23.8836 11.2268 24.125 11.8346 24.125H20.168C20.7758 24.125 21.3587 23.8836 21.7884 23.4538C22.2182 23.024 22.4596 22.4411 22.4596 21.8333V12.64C22.4596 12.3225 22.3563 12.0142 22.1646 11.7608L19.6663 8.45417C19.5304 8.27426 19.3546 8.12833 19.1527 8.02784C18.9509 7.92735 18.7285 7.87503 18.503 7.875H11.8346ZM10.793 10.1667C10.793 9.59167 11.2596 9.125 11.8346 9.125H17.8763V12.7892C17.8763 13.1342 18.1563 13.4142 18.5013 13.4142H21.2096V21.8333C21.2096 22.4083 20.743 22.875 20.168 22.875H11.8346C11.2596 22.875 10.793 22.4083 10.793 21.8333V10.1667Z" fill="#502B15"/>
</svg>
